<svg xmlns="http://www.w3.org/2000/svg" fill="none" viewBox="0 0 256 256">
  <g fill="currentColor">
    <path d="M143.1 60.1a20 20 0 00-8.4-32V13.4H148V0h-40v13.4h13.3V40h6.7c3.6 0 6.7 3.1 6.7 6.7 0 6.6-6.7 6.6-6.7 6.6s-6.7 0-6.7-6.6H108a20 20 0 004.9 13.3L45.6 93.5H14V228h228V93.5h-31.6L143 60.1zM128 67.7l52.1 25.8H75.9L128 67.7zm100.6 147H27.4V106.8h201.2v107.7z"/>
    <path d="M47.7 130.7v56.7H56v-41h.5l16.7 41H80l16.7-41h.5v41h8.2v-56.7H94.9l-18 44.1h-.7l-18-44H47.6zm84.5 56.7c17.3 0 27.3-10.7 27.3-28.4s-10-28.3-26.7-28.3h-19v56.7h18.4zm-9.8-7.4v-41.8h9.9c12.4 0 18.8 7.4 18.8 20.8s-6.4 21-19.4 21h-9.3zm48.3-49.3h-9.9l18 28.4-18 28.3h9.9l13.6-21.8h.4l13.7 21.8h10l-17.8-28.3 17.6-28.4h-9.9L184.7 153h-.4l-13.6-22.2z"/>
  </g>
</svg>
