<svg xmlns="http://www.w3.org/2000/svg" fill="none" viewBox="0 0 229 90">
  <g fill="#000" clip-path="url(#clip0)">
    <path d="M130.3 16.9a5.6 5.6 0 00-2.4-9V3.7h3.7V0h-11.2v3.8h3.7v7.5h1.9c1 0 1.9.8 1.9 1.8 0 1.9-1.9 1.9-1.9 1.9s-1.9 0-1.9-1.9h-3.7c0 1.4.4 2.7 1.3 3.8L103 26.3H94V64h64V26.2h-8.9L130.3 17zM126 19l14.6 7.3h-29.2L126 19zm28.3 41.3H97.7V30h56.5v30.3z"/>
    <path d="M103.8 37v16h2.3V41.4h.1l4.7 11.6h2l4.6-11.6h.2V53h2.3V37h-3l-5 12.4h-.2L106.7 37h-3zm23.8 16c4.9 0 7.7-3 7.7-8s-2.8-8-7.6-8h-5.3v16h5.2zm-2.8-2.1V39h2.8c3.5 0 5.3 2.1 5.3 5.9 0 3.8-1.8 5.9-5.5 5.9h-2.6zM138.4 37h-2.7l5 8-5 8h2.7l3.9-6.2h.1l3.8 6.2h2.9l-5-8 5-8h-2.9l-3.8 6.3h-.1l-3.9-6.3z"/>
  </g>
  <path fill="#000" d="M179 40.6h3.5c0-3.1-2.6-5.3-6.5-5.3-3.8 0-6.6 2.1-6.6 5.3 0 2.6 1.8 4 4.8 4.7l1.9.5c1.9.5 3 1 3 2.2 0 1.3-1.3 2.2-3.2 2.2-1.9 0-3.3-1-3.4-2.7H169c0 3.8 2.8 5.7 7 5.7s6.8-2 6.8-5.2c0-2.9-2.2-4.4-5.3-5.1l-1.5-.4c-1.6-.3-2.8-.9-2.8-2.2 0-1 1-2 2.8-2 1.8 0 2.8.9 3 2.3zm14.6 6.8c0 1.8-1.2 2.7-2.5 2.7-1.4 0-2.3-1-2.3-2.5v-7.7h-3.6v8.3c0 3.1 1.8 5 4.4 5 2 0 3.4-1 4-2.6h.1V53h3.5V40h-3.6v7.4zM200 53h3.6V40h-3.6v13zm1.8-14.8c1.1 0 2-.8 2-1.8s-.9-1.9-2-1.9c-1 0-2 .9-2 1.9 0 1 1 1.8 2 1.8zm11.7 1.7h-2.5v-3.1h-3.6v3.1h-1.8v2.7h1.8v6.9c0 2.5 1.7 3.8 4.4 3.7a7 7 0 002-.4l-.6-2.7-1 .2c-.7 0-1.2-.3-1.2-1.3v-6.4h2.5V40zm8.2 13.4c3.2 0 5.4-1.6 6-4l-3.4-.3c-.4 1-1.3 1.5-2.5 1.5-1.9 0-3-1.2-3-3.1h9v-1c0-4.5-2.8-6.7-6.2-6.7-3.9 0-6.4 2.8-6.4 6.8 0 4.2 2.5 6.8 6.5 6.8zm-3-8.2c.2-1.5 1.3-2.7 3-2.7 1.5 0 2.6 1.2 2.6 2.7h-5.5zM13 41.2h3.8c-.4-3.5-3.5-5.9-7.4-5.9-4.6 0-8.2 3.3-8.2 9 0 5.5 3.3 9 8.3 9 4.4 0 7.5-2.8 7.5-7.4v-2.2H9.7v2.7h3.7c0 2.2-1.5 3.6-4 3.6C6.8 50 5 47.9 5 44.3c0-3.7 1.8-5.7 4.4-5.7 2 0 3.2 1 3.7 2.6zm10.4 12c2 0 3.2-.8 3.9-2V53h3.5v-8.8c0-3.1-2.6-4.5-5.5-4.5-3.2 0-5.2 1.5-5.7 4l3.3.2c.3-.9 1-1.5 2.3-1.5 1.3 0 2 .6 2 1.7 0 .9-1 1-3.2 1.2-2.6.3-5 1.1-5 4 0 2.6 2 4 4.4 4zm1-2.5c-1 0-1.8-.5-1.8-1.5s.8-1.5 2-1.7c.9 0 2.2-.3 2.6-.6v1.4c0 1.4-1.1 2.4-2.7 2.4zM40.7 40H38v-3.1h-3.6v3.1h-1.8v2.7h1.8v6.9c0 2.5 1.7 3.8 4.4 3.7a7 7 0 002-.4l-.6-2.7-1 .2c-.7 0-1.2-.3-1.2-1.3v-6.4h2.5V40zm13 3.7c-.3-2.4-2.2-3.9-5.5-3.9-3.4 0-5.6 1.6-5.6 4.1 0 2 1.3 3.2 3.8 3.8l2.3.4c1.1.2 1.7.7 1.7 1.3 0 .8-.9 1.3-2.2 1.3-1.3 0-2.1-.5-2.3-1.6l-3.6.2c.3 2.5 2.5 4 6 4 3.3 0 5.8-1.7 5.8-4.3 0-1.8-1.3-3-3.8-3.5l-2.4-.5c-1.2-.2-1.7-.7-1.7-1.3 0-.8 1-1.3 2-1.3 1.3 0 2 .7 2.2 1.5l3.4-.2zm2.7 9.4H60v-2.1h.2c.5 1 1.6 2.3 3.7 2.3 3 0 5.3-2.3 5.3-6.7 0-4.5-2.4-6.8-5.3-6.8a3.9 3.9 0 00-3.7 2.4h-.2v-6.6h-3.6V53zm3.6-6.5c0-2.4 1-3.9 2.7-3.9 1.8 0 2.8 1.6 2.8 3.9 0 2.2-1 3.8-2.8 3.8-1.7 0-2.7-1.5-2.7-3.8zm13.4 11.4c2.7 0 4.1-1.4 4.9-3.5l5-14.5h-3.8l-2.7 9.6h-.2L73.8 40H70l4.7 13.5-.2.5c-.5 1.2-1.4 1.3-2.7.9l-.8 2.7c.5.2 1.4.4 2.3.4z"/>
</svg>
